<svg xmlns="http://www.w3.org/2000/svg" width="236" height="31" viewBox="0 0 236 31" fill="none"><path d="M235.632 30.5421L232.428 30.5535C231.727 30.5535 231.027 30.5421 230.327 30.5535C230.221 30.5618 230.114 30.5417 230.018 30.4953C229.923 30.4488 229.841 30.3779 229.783 30.2897C227.208 26.9413 224.629 23.5972 222.045 20.2573C219.129 16.4807 216.214 12.7055 213.298 8.93166C213.23 8.8344 213.139 8.75468 213.033 8.69911V30.4797C212.757 30.5606 208.081 30.5833 207.594 30.5124V0.473235C207.667 0.457586 207.741 0.44716 207.815 0.442039C209.538 0.442039 211.262 0.442039 212.985 0.434949C213.075 0.434773 213.164 0.45817 213.242 0.502756C213.32 0.547341 213.384 0.611525 213.429 0.688772C215.281 3.04172 217.134 5.39278 218.99 7.74195L229.929 21.6073C230 21.6996 230.084 21.7809 230.179 21.8483C230.214 20.4218 230.212 19.0024 230.212 17.5829V0.440621H235.253C235.38 0.440621 235.506 0.433531 235.632 0.430695V30.5421Z" fill="black"></path><path d="M184.214 0.22757C184.418 0.250258 184.621 0.281454 184.825 0.295634C186.89 0.437435 188.898 0.821716 190.794 1.66969C193.692 2.96433 195.667 5.11829 196.817 8.02663C197.348 9.40339 197.7 10.8408 197.865 12.3048C198.077 14.0376 198.118 15.7866 197.989 17.5273C197.857 19.331 197.545 21.0993 196.902 22.8009C195.595 26.2533 193.177 28.5835 189.648 29.7917C188.188 30.2771 186.672 30.5769 185.136 30.6836C183.659 30.8048 182.174 30.802 180.697 30.6751C178.694 30.4964 176.755 30.0639 174.937 29.1819C172.135 27.8235 170.239 25.6482 169.068 22.8264C168.483 21.3851 168.083 19.8768 167.878 18.337C167.689 17.1648 167.602 15.9788 167.619 14.792C167.69 12.6309 167.963 10.5039 168.709 8.45629C169.524 6.22859 170.823 4.34405 172.777 2.93313C174.257 1.8597 175.913 1.19182 177.686 0.780594C178.881 0.499925 180.101 0.333721 181.329 0.28429C181.442 0.2731 181.554 0.254148 181.664 0.22757L184.214 0.22757ZM192.139 15.423C192.139 14.9706 192.162 14.5154 192.139 14.0645C192.077 12.8305 191.846 11.6104 191.453 10.4372C190.572 7.90043 188.868 6.18321 186.225 5.48414C184.028 4.89956 181.711 4.90739 179.518 5.50682C176.976 6.18321 175.26 7.77564 174.326 10.1976C173.862 11.4662 173.596 12.7975 173.539 14.1453C173.471 15.2417 173.49 16.3418 173.598 17.4351C173.695 18.53 173.931 19.6086 174.3 20.6455C175.221 23.137 176.946 24.8003 179.555 25.5008C181.683 26.0747 183.924 26.0953 186.061 25.5603C187.561 25.2182 188.91 24.4112 189.912 23.2575C190.655 22.3751 191.207 21.3521 191.535 20.2513C192.027 18.6787 192.169 17.0594 192.139 15.423Z" fill="black"></path><path d="M0 30.5317L12.9515 0.459991H19.0568L32.2597 30.4878C32.0011 30.5658 26.6829 30.5899 26.186 30.5218C26.1156 30.38 26.0424 30.2254 25.9692 30.0723C24.8202 27.605 23.6583 25.1405 22.5223 22.6674C22.4853 22.558 22.4109 22.4646 22.3119 22.4033C22.2129 22.342 22.0953 22.3166 21.9794 22.3314C19.0051 22.3413 16.0293 22.3385 13.0549 22.3385H12.5767C13.2316 20.7007 13.8693 19.1082 14.5141 17.5016H20.8592C19.1918 13.7297 17.5445 10.0018 15.8613 6.19584L5.80794 30.5317H0Z" fill="black"></path><path d="M97.7742 0.454132H104.374C104.343 0.716464 91.4291 29.8424 91.0342 30.54H84.9476L72.1426 0.454132H78.8754L88.2925 23.4018H88.3744C91.511 15.7559 94.6443 8.10666 97.7742 0.454132Z" fill="black"></path><path d="M142.465 0.459991H148.088V25.7006H162.205C162.191 25.9842 160.716 29.7518 160.322 30.5374H142.465V0.459991Z" fill="black"></path><path d="M66.0546 0.458627L52.6147 14.4969L67.8225 30.5205C67.6789 30.5346 67.5985 30.5516 67.5137 30.5516C65.1024 30.5516 62.6896 30.5516 60.2782 30.5516C60.1828 30.5521 60.0887 30.5298 60.0039 30.4866C59.9192 30.4434 59.8462 30.3805 59.7914 30.3035C57.166 27.3313 54.5383 24.3616 51.9081 21.3941C50.5495 19.8584 49.1937 18.3199 47.825 16.7927C47.736 16.6993 47.667 16.5891 47.6221 16.4687C47.5772 16.3484 47.5573 16.2203 47.5637 16.0922C47.578 15.1308 47.578 14.1684 47.5637 13.2051C47.5605 13.0883 47.582 12.9722 47.6267 12.864C47.6715 12.7559 47.7385 12.6581 47.8236 12.5769C50.897 9.28716 53.9676 5.99454 57.0353 2.69908C57.6802 2.00709 58.3279 1.31652 58.967 0.62028C59.0158 0.559198 59.0783 0.510123 59.1496 0.476908C59.2208 0.443693 59.2989 0.427243 59.3777 0.428849C61.532 0.435939 63.6734 0.428849 65.8205 0.428849C65.865 0.443029 65.9109 0.448701 66.0546 0.458627Z" fill="black"></path><path d="M45.8494 0.463898V30.4988C45.5952 30.5683 40.7265 30.5895 40.2483 30.5257C40.1808 30.2676 40.1678 0.828326 40.2396 0.463898H45.8494Z" fill="black"></path><path d="M116.944 30.7237C112.282 30.7237 107.619 30.7237 102.957 30.7237C102.366 30.7261 101.797 30.5077 101.362 30.1126C101.169 29.9502 101.014 29.7485 100.908 29.5213C100.801 29.2942 100.746 29.047 100.745 28.7966C100.729 28.5252 100.742 28.2529 100.784 27.9841C100.913 27.3361 101.753 26.4938 102.464 26.4725C102.692 26.4725 102.919 26.4257 103.146 26.4215C103.629 26.413 104.111 26.4215 104.594 26.4215C112.873 26.4215 121.153 26.4177 129.433 26.4101C129.627 26.4101 129.819 26.3704 130.007 26.3605C130.556 26.3216 131.107 26.3651 131.643 26.4896C132.058 26.6114 132.423 26.8595 132.686 27.1984C132.95 27.5374 133.098 27.9499 133.109 28.3769C133.115 28.625 133.095 28.873 133.05 29.1171C132.847 30.1324 131.986 30.7124 131.03 30.7294C129.961 30.7492 128.893 30.7294 127.826 30.7294H116.944V30.7237Z" fill="#E96719"></path><path d="M120.153 17.7408C116.535 17.7408 112.919 17.7266 109.301 17.7521C108.439 17.7521 107.456 17.0658 107.269 16.1327C107.092 15.2465 107.245 14.4311 108.052 13.8639C108.452 13.5744 108.937 13.4198 109.433 13.4229C111.983 13.4305 114.532 13.4343 117.081 13.4343C121.677 13.4343 126.27 13.4343 130.86 13.4343C131.938 13.4343 132.57 13.9873 132.915 14.8069C133.114 15.2599 133.15 15.7669 133.015 16.2426C132.88 16.7183 132.584 17.1337 132.175 17.4189C131.877 17.6338 131.515 17.7468 131.146 17.7408C130.491 17.7474 129.836 17.7512 129.182 17.7521H120.153V17.7408Z" fill="#E96719"></path><path d="M118.398 0.454759C119.317 0.454759 120.235 0.454759 121.154 0.454759C123.472 0.470357 125.788 0.498717 128.105 0.507225C128.998 0.507225 129.896 0.412219 130.785 0.467521C132.129 0.552602 133.015 1.36512 133.041 2.72216C133.06 3.68782 132.136 4.84917 130.903 4.82365H130.73L118.026 4.76409C117.131 4.76409 116.235 4.7726 115.34 4.76409C115.054 4.76424 114.77 4.72899 114.493 4.65916C113.487 4.39115 112.996 3.6779 112.955 2.60163C112.913 1.52536 113.821 0.651862 114.654 0.488791C114.777 0.466625 114.903 0.455708 115.028 0.456177C116.147 0.453341 117.273 0.454759 118.398 0.454759Z" fill="#E96719"></path></svg>